<svg xmlns="http://www.w3.org/2000/svg" width="1180" height="560" viewBox="0 0 1180 560">
<rect width="100%" height="100%" fill="#fff"/>
<text x="92" y="38" font-family="Arial,sans-serif" font-size="26" font-weight="700">Corrected FP16 multi-head attention · decode</text>
<text x="92" y="62" font-family="Arial,sans-serif" font-size="14" fill="#526174">OpenVINO 2026.3 · compilation excluded · logarithmic latency axis</text>
<rect x="920" y="28" width="16" height="16" rx="2" fill="#4d7cfe"/>
<text x="943" y="42" font-family="Arial,sans-serif" font-size="14">GPU</text>
<rect x="1030" y="28" width="16" height="16" rx="2" fill="#f59e0b"/>
<text x="1053" y="42" font-family="Arial,sans-serif" font-size="14">NPU</text>
<line x1="92" y1="449.1" x2="1148" y2="449.1" stroke="#e1e7ef"/>
<text x="80" y="454.1" text-anchor="end" font-family="Arial,sans-serif" font-size="13" fill="#526174">0.5</text>
<line x1="92" y1="376.5" x2="1148" y2="376.5" stroke="#e1e7ef"/>
<text x="80" y="381.5" text-anchor="end" font-family="Arial,sans-serif" font-size="13" fill="#526174">1</text>
<line x1="92" y1="303.9" x2="1148" y2="303.9" stroke="#e1e7ef"/>
<text x="80" y="308.9" text-anchor="end" font-family="Arial,sans-serif" font-size="13" fill="#526174">2</text>
<line x1="92" y1="208.0" x2="1148" y2="208.0" stroke="#e1e7ef"/>
<text x="80" y="213.0" text-anchor="end" font-family="Arial,sans-serif" font-size="13" fill="#526174">5</text>
<line x1="92" y1="135.4" x2="1148" y2="135.4" stroke="#e1e7ef"/>
<text x="80" y="140.4" text-anchor="end" font-family="Arial,sans-serif" font-size="13" fill="#526174">10</text>
<rect x="138.8" y="422.4" width="56.0" height="55.6" rx="2" fill="#4d7cfe" fill-opacity="1"/>
<text x="166.8" y="415.4" text-anchor="middle" font-family="Arial,sans-serif" font-size="12" fill="#334155">0.65</text>
<rect x="200.4" y="364.2" width="56.0" height="113.8" rx="2" fill="#f59e0b" fill-opacity="1"/>
<text x="228.4" y="357.2" text-anchor="middle" font-family="Arial,sans-serif" font-size="12" fill="#334155">1.12</text>
<text x="197.6" y="505" text-anchor="middle" font-family="Arial,sans-serif" font-size="14" fill="#334155">2K</text>
<rect x="350.0" y="364.8" width="56.0" height="113.2" rx="2" fill="#4d7cfe" fill-opacity="1"/>
<text x="378.0" y="357.8" text-anchor="middle" font-family="Arial,sans-serif" font-size="12" fill="#334155">1.12</text>
<rect x="411.6" y="331.8" width="56.0" height="146.2" rx="2" fill="#f59e0b" fill-opacity="0.30" stroke="#b91c1c" stroke-width="2" stroke-dasharray="5 3"/>
<text x="439.6" y="324.8" text-anchor="middle" font-family="Arial,sans-serif" font-size="12" fill="#334155">1.53†</text>
<text x="408.8" y="505" text-anchor="middle" font-family="Arial,sans-serif" font-size="14" fill="#334155">4K</text>
<rect x="561.2" y="298.4" width="56.0" height="179.6" rx="2" fill="#4d7cfe" fill-opacity="1"/>
<text x="589.2" y="291.4" text-anchor="middle" font-family="Arial,sans-serif" font-size="12" fill="#334155">2.11</text>
<rect x="622.8" y="264.3" width="56.0" height="213.7" rx="2" fill="#f59e0b" fill-opacity="0.30" stroke="#b91c1c" stroke-width="2" stroke-dasharray="5 3"/>
<text x="650.8" y="257.3" text-anchor="middle" font-family="Arial,sans-serif" font-size="12" fill="#334155">2.92†</text>
<text x="620.0" y="505" text-anchor="middle" font-family="Arial,sans-serif" font-size="14" fill="#334155">8K</text>
<rect x="772.4" y="225.7" width="56.0" height="252.3" rx="2" fill="#4d7cfe" fill-opacity="1"/>
<text x="800.4" y="218.7" text-anchor="middle" font-family="Arial,sans-serif" font-size="12" fill="#334155">4.22</text>
<rect x="834.0" y="348.4" width="56.0" height="129.6" rx="2" fill="#f59e0b" fill-opacity="0.30" stroke="#b91c1c" stroke-width="2" stroke-dasharray="5 3"/>
<text x="862.0" y="341.4" text-anchor="middle" font-family="Arial,sans-serif" font-size="12" fill="#334155">1.31†</text>
<text x="831.2" y="505" text-anchor="middle" font-family="Arial,sans-serif" font-size="14" fill="#334155">16K</text>
<rect x="983.6" y="133.6" width="56.0" height="344.4" rx="2" fill="#4d7cfe" fill-opacity="1"/>
<text x="1011.6" y="126.6" text-anchor="middle" font-family="Arial,sans-serif" font-size="12" fill="#334155">10.17</text>
<rect x="1045.2" y="285.1" width="56.0" height="192.9" rx="2" fill="#f59e0b" fill-opacity="0.30" stroke="#b91c1c" stroke-width="2" stroke-dasharray="5 3"/>
<text x="1073.2" y="278.1" text-anchor="middle" font-family="Arial,sans-serif" font-size="12" fill="#334155">2.39†</text>
<text x="1042.4" y="505" text-anchor="middle" font-family="Arial,sans-serif" font-size="14" fill="#334155">32K</text>
<line x1="92" y1="478" x2="1148" y2="478" stroke="#334155"/>
<line x1="92" y1="78" x2="92" y2="478" stroke="#334155"/>
<text x="620.0" y="538" text-anchor="middle" font-family="Arial,sans-serif" font-size="16" fill="#334155">Context window (tokens)</text>
<text x="24" y="278.0" text-anchor="middle" transform="rotate(-90 24 278.0)" font-family="Arial,sans-serif" font-size="16" fill="#334155">Median latency (ms, log scale)</text>
<text x="1148" y="538" text-anchor="end" font-family="Arial,sans-serif" font-size="12" fill="#b91c1c">† measured, rejected by CPU-reference gate</text>
</svg>