<svg xmlns="http://www.w3.org/2000/svg" width="2400" height="760" viewBox="0 0 2400 760">
<rect width="100%" height="100%" fill="#ffffff"/>
<style>text{font-family:Arial,sans-serif;fill:#334155}.title{font-weight:700;fill:#111827}.grid{stroke:#dbe3ee;stroke-width:1}.axis{stroke:#526174;stroke-width:1.4}.error{stroke:#64748b;stroke-width:1.2}</style>
<text x="1200.0" y="37" text-anchor="middle" class="title" font-size="28">Qwen2.5-0.5B FP16 model · audited end-to-end measurements · OpenVINO 2026.3</text>
<rect x="540.0" y="69" width="28" height="16" fill="#4f7df3"/>
<text x="578.0" y="83" font-size="17">GPU e2e</text>
<rect x="980.0" y="69" width="28" height="16" fill="#f59e0b"/>
<text x="1018.0" y="83" font-size="17">NPU e2e (native NPUW)</text>
<rect x="1420.0" y="69" width="28" height="16" fill="#10b981"/>
<text x="1458.0" y="83" font-size="17">Compute oracle: withdrawn</text>
<text x="43" y="128" class="title" font-size="20">FP16 · Request latency (s) ↓</text>
<line x1="110" y1="655.0" x2="757" y2="655.0" class="grid"/>
<text x="100" y="660.0" text-anchor="end" font-size="14">0.0</text>
<line x1="110" y1="554.0" x2="757" y2="554.0" class="grid"/>
<text x="100" y="559.0" text-anchor="end" font-size="14">0.4</text>
<line x1="110" y1="453.0" x2="757" y2="453.0" class="grid"/>
<text x="100" y="458.0" text-anchor="end" font-size="14">0.8</text>
<line x1="110" y1="352.0" x2="757" y2="352.0" class="grid"/>
<text x="100" y="357.0" text-anchor="end" font-size="14">1.3</text>
<line x1="110" y1="251.0" x2="757" y2="251.0" class="grid"/>
<text x="100" y="256.0" text-anchor="end" font-size="14">1.7</text>
<line x1="110" y1="150.0" x2="757" y2="150.0" class="grid"/>
<text x="100" y="155.0" text-anchor="end" font-size="14">2.1</text>
<line x1="110" y1="150" x2="110" y2="655" class="axis"/>
<line x1="110" y1="655" x2="757" y2="655" class="axis"/>
<rect x="141.4" y="539.6" width="31" height="115.4" fill="#4f7df3"><title>direct_gpu, W=128, latency_s=0.48323968797922134</title></rect>
<text x="156.9" y="529.3" text-anchor="middle" font-size="13">0.483</text>
<line x1="156.9" y1="539.3" x2="156.9" y2="540.1" class="error"/>
<line x1="151.9" y1="539.3" x2="161.9" y2="539.3" class="error"/>
<line x1="151.9" y1="540.1" x2="161.9" y2="540.1" class="error"/>
<rect x="175.4" y="525.2" width="31" height="129.8" fill="#f59e0b"><title>direct_npu, W=128, latency_s=0.5433242134749889</title></rect>
<text x="190.9" y="507.3" text-anchor="middle" font-size="13">0.543</text>
<line x1="190.9" y1="525.1" x2="190.9" y2="525.6" class="error"/>
<line x1="185.9" y1="525.1" x2="195.9" y2="525.1" class="error"/>
<line x1="185.9" y1="525.6" x2="195.9" y2="525.6" class="error"/>
<text x="224.9" y="645" text-anchor="middle" font-size="14" style="fill:#047857">N/A</text>
<text x="190.9" y="681" text-anchor="middle" font-size="15">128</text>
<rect x="303.1" y="517.3" width="31" height="137.7" fill="#4f7df3"><title>direct_gpu, W=512, latency_s=0.5765131078660488</title></rect>
<text x="318.6" y="507.2" text-anchor="middle" font-size="13">0.577</text>
<line x1="318.6" y1="517.2" x2="318.6" y2="519.1" class="error"/>
<line x1="313.6" y1="517.2" x2="323.6" y2="517.2" class="error"/>
<line x1="313.6" y1="519.1" x2="323.6" y2="519.1" class="error"/>
<rect x="337.1" y="514.1" width="31" height="140.9" fill="#f59e0b"><title>direct_npu, W=512, latency_s=0.5898269899189472</title></rect>
<text x="352.6" y="485.2" text-anchor="middle" font-size="13">0.590</text>
<line x1="352.6" y1="513.8" x2="352.6" y2="514.5" class="error"/>
<line x1="347.6" y1="513.8" x2="357.6" y2="513.8" class="error"/>
<line x1="347.6" y1="514.5" x2="357.6" y2="514.5" class="error"/>
<text x="386.6" y="645" text-anchor="middle" font-size="14" style="fill:#047857">N/A</text>
<text x="352.6" y="681" text-anchor="middle" font-size="15">512</text>
<rect x="464.9" y="491.5" width="31" height="163.5" fill="#4f7df3"><title>direct_gpu, W=1024, latency_s=0.6845937166363001</title></rect>
<text x="480.4" y="480.9" text-anchor="middle" font-size="13">0.685</text>
<line x1="480.4" y1="490.9" x2="480.4" y2="491.6" class="error"/>
<line x1="475.4" y1="490.9" x2="485.4" y2="490.9" class="error"/>
<line x1="475.4" y1="491.6" x2="485.4" y2="491.6" class="error"/>
<rect x="498.9" y="495.8" width="31" height="159.2" fill="#f59e0b"><title>direct_npu, W=1024, latency_s=0.6667081955820322</title></rect>
<text x="514.4" y="458.9" text-anchor="middle" font-size="13">0.667</text>
<line x1="514.4" y1="495.2" x2="514.4" y2="496.5" class="error"/>
<line x1="509.4" y1="495.2" x2="519.4" y2="495.2" class="error"/>
<line x1="509.4" y1="496.5" x2="519.4" y2="496.5" class="error"/>
<text x="548.4" y="645" text-anchor="middle" font-size="14" style="fill:#047857">N/A</text>
<text x="514.4" y="681" text-anchor="middle" font-size="15">1024</text>
<rect x="626.6" y="429.0" width="31" height="226.0" fill="#4f7df3"><title>direct_gpu, W=2048, latency_s=0.9464181941002607</title></rect>
<text x="642.1" y="418.5" text-anchor="middle" font-size="13">0.946</text>
<line x1="642.1" y1="428.5" x2="642.1" y2="429.0" class="error"/>
<line x1="637.1" y1="428.5" x2="647.1" y2="428.5" class="error"/>
<line x1="637.1" y1="429.0" x2="647.1" y2="429.0" class="error"/>
<rect x="660.6" y="454.3" width="31" height="200.7" fill="#f59e0b"><title>direct_npu, W=2048, latency_s=0.840327262878418</title></rect>
<text x="676.1" y="443.9" text-anchor="middle" font-size="13">0.840</text>
<line x1="676.1" y1="453.9" x2="676.1" y2="454.7" class="error"/>
<line x1="671.1" y1="453.9" x2="681.1" y2="453.9" class="error"/>
<line x1="671.1" y1="454.7" x2="681.1" y2="454.7" class="error"/>
<text x="710.1" y="645" text-anchor="middle" font-size="14" style="fill:#047857">N/A</text>
<text x="676.1" y="681" text-anchor="middle" font-size="15">2048</text>
<text x="433.5" y="710" text-anchor="middle" font-size="16">Prompt length W (tokens)</text>
<text x="838" y="128" class="title" font-size="20">FP16 · Processed-input tokens/s ↑</text>
<line x1="905" y1="655.0" x2="1552" y2="655.0" class="grid"/>
<text x="895" y="660.0" text-anchor="end" font-size="14">0</text>
<line x1="905" y1="554.0" x2="1552" y2="554.0" class="grid"/>
<text x="895" y="559.0" text-anchor="end" font-size="14">564</text>
<line x1="905" y1="453.0" x2="1552" y2="453.0" class="grid"/>
<text x="895" y="458.0" text-anchor="end" font-size="14">1129</text>
<line x1="905" y1="352.0" x2="1552" y2="352.0" class="grid"/>
<text x="895" y="357.0" text-anchor="end" font-size="14">1693</text>
<line x1="905" y1="251.0" x2="1552" y2="251.0" class="grid"/>
<text x="895" y="256.0" text-anchor="end" font-size="14">2257</text>
<line x1="905" y1="150.0" x2="1552" y2="150.0" class="grid"/>
<text x="895" y="155.0" text-anchor="end" font-size="14">2822</text>
<line x1="905" y1="150" x2="905" y2="655" class="axis"/>
<line x1="905" y1="655" x2="1552" y2="655" class="axis"/>
<rect x="936.4" y="595.7" width="31" height="59.3" fill="#4f7df3"><title>direct_gpu, W=128, request_work_tokens_per_s=331.098632790442</title></rect>
<text x="951.9" y="585.5" text-anchor="middle" font-size="13">331</text>
<line x1="951.9" y1="595.5" x2="951.9" y2="595.9" class="error"/>
<line x1="946.9" y1="595.5" x2="956.9" y2="595.5" class="error"/>
<line x1="946.9" y1="595.9" x2="956.9" y2="595.9" class="error"/>
<rect x="970.4" y="602.3" width="31" height="52.7" fill="#f59e0b"><title>direct_npu, W=128, request_work_tokens_per_s=294.4834705169372</title></rect>
<text x="985.9" y="563.5" text-anchor="middle" font-size="13">294</text>
<line x1="985.9" y1="602.1" x2="985.9" y2="602.3" class="error"/>
<line x1="980.9" y1="602.1" x2="990.9" y2="602.1" class="error"/>
<line x1="980.9" y1="602.3" x2="990.9" y2="602.3" class="error"/>
<text x="1019.9" y="645" text-anchor="middle" font-size="14" style="fill:#047857">N/A</text>
<text x="985.9" y="681" text-anchor="middle" font-size="15">128</text>
<rect x="1098.1" y="486.1" width="31" height="168.9" fill="#4f7df3"><title>direct_gpu, W=512, request_work_tokens_per_s=943.6038705409571</title></rect>
<text x="1113.6" y="473.9" text-anchor="middle" font-size="13">944</text>
<line x1="1113.6" y1="483.9" x2="1113.6" y2="486.3" class="error"/>
<line x1="1108.6" y1="483.9" x2="1118.6" y2="483.9" class="error"/>
<line x1="1108.6" y1="486.3" x2="1118.6" y2="486.3" class="error"/>
<rect x="1132.1" y="489.9" width="31" height="165.1" fill="#f59e0b"><title>direct_npu, W=512, request_work_tokens_per_s=922.3043524589394</title></rect>
<text x="1147.6" y="451.9" text-anchor="middle" font-size="13">922</text>
<line x1="1147.6" y1="489.5" x2="1147.6" y2="490.3" class="error"/>
<line x1="1142.6" y1="489.5" x2="1152.6" y2="489.5" class="error"/>
<line x1="1142.6" y1="490.3" x2="1152.6" y2="490.3" class="error"/>
<text x="1181.6" y="645" text-anchor="middle" font-size="14" style="fill:#047857">N/A</text>
<text x="1147.6" y="681" text-anchor="middle" font-size="15">512</text>
<rect x="1259.9" y="378.9" width="31" height="276.1" fill="#4f7df3"><title>direct_gpu, W=1024, request_work_tokens_per_s=1542.5207306730433</title></rect>
<text x="1275.4" y="368.8" text-anchor="middle" font-size="13">1543</text>
<line x1="1275.4" y1="378.8" x2="1275.4" y2="379.9" class="error"/>
<line x1="1270.4" y1="378.8" x2="1280.4" y2="378.8" class="error"/>
<line x1="1270.4" y1="379.9" x2="1280.4" y2="379.9" class="error"/>
<rect x="1293.9" y="371.5" width="31" height="283.5" fill="#f59e0b"><title>direct_npu, W=1024, request_work_tokens_per_s=1583.9013334433641</title></rect>
<text x="1309.4" y="346.8" text-anchor="middle" font-size="13">1584</text>
<line x1="1309.4" y1="370.3" x2="1309.4" y2="372.5" class="error"/>
<line x1="1304.4" y1="370.3" x2="1314.4" y2="370.3" class="error"/>
<line x1="1304.4" y1="372.5" x2="1314.4" y2="372.5" class="error"/>
<text x="1343.4" y="645" text-anchor="middle" font-size="14" style="fill:#047857">N/A</text>
<text x="1309.4" y="681" text-anchor="middle" font-size="15">1024</text>
<rect x="1421.6" y="261.7" width="31" height="393.3" fill="#4f7df3"><title>direct_gpu, W=2048, request_work_tokens_per_s=2197.7599468883955</title></rect>
<text x="1437.1" y="251.6" text-anchor="middle" font-size="13">2198</text>
<line x1="1437.1" y1="261.6" x2="1437.1" y2="262.4" class="error"/>
<line x1="1432.1" y1="261.6" x2="1442.1" y2="261.6" class="error"/>
<line x1="1432.1" y1="262.4" x2="1442.1" y2="262.4" class="error"/>
<rect x="1455.6" y="212.0" width="31" height="443.0" fill="#f59e0b"><title>direct_npu, W=2048, request_work_tokens_per_s=2475.2261313946483</title></rect>
<text x="1471.1" y="201.2" text-anchor="middle" font-size="13">2475</text>
<line x1="1471.1" y1="211.2" x2="1471.1" y2="212.9" class="error"/>
<line x1="1466.1" y1="211.2" x2="1476.1" y2="211.2" class="error"/>
<line x1="1466.1" y1="212.9" x2="1476.1" y2="212.9" class="error"/>
<text x="1505.1" y="645" text-anchor="middle" font-size="14" style="fill:#047857">N/A</text>
<text x="1471.1" y="681" text-anchor="middle" font-size="15">2048</text>
<text x="1228.5" y="710" text-anchor="middle" font-size="16">Prompt length W (tokens)</text>
<text x="1633" y="128" class="title" font-size="20">FP16 · Net system energy / request (J) ↓</text>
<line x1="1700" y1="655.0" x2="2347" y2="655.0" class="grid"/>
<text x="1690" y="660.0" text-anchor="end" font-size="14">0</text>
<line x1="1700" y1="554.0" x2="2347" y2="554.0" class="grid"/>
<text x="1690" y="559.0" text-anchor="end" font-size="14">13</text>
<line x1="1700" y1="453.0" x2="2347" y2="453.0" class="grid"/>
<text x="1690" y="458.0" text-anchor="end" font-size="14">26</text>
<line x1="1700" y1="352.0" x2="2347" y2="352.0" class="grid"/>
<text x="1690" y="357.0" text-anchor="end" font-size="14">40</text>
<line x1="1700" y1="251.0" x2="2347" y2="251.0" class="grid"/>
<text x="1690" y="256.0" text-anchor="end" font-size="14">53</text>
<line x1="1700" y1="150.0" x2="2347" y2="150.0" class="grid"/>
<text x="1690" y="155.0" text-anchor="end" font-size="14">66</text>
<line x1="1700" y1="150" x2="1700" y2="655" class="axis"/>
<line x1="1700" y1="655" x2="2347" y2="655" class="axis"/>
<rect x="1731.4" y="550.7" width="31" height="104.3" fill="#4f7df3"><title>direct_gpu, W=128, net_system_energy_j=13.61371665173678</title></rect>
<text x="1746.9" y="535.4" text-anchor="middle" font-size="13">13.6</text>
<line x1="1746.9" y1="545.4" x2="1746.9" y2="554.2" class="error"/>
<line x1="1741.9" y1="545.4" x2="1751.9" y2="545.4" class="error"/>
<line x1="1741.9" y1="554.2" x2="1751.9" y2="554.2" class="error"/>
<rect x="1765.4" y="585.0" width="31" height="70.0" fill="#f59e0b"><title>direct_npu, W=128, net_system_energy_j=9.13325846807174</title></rect>
<text x="1780.9" y="571.6" text-anchor="middle" font-size="13">9.1</text>
<line x1="1780.9" y1="581.6" x2="1780.9" y2="585.8" class="error"/>
<line x1="1775.9" y1="581.6" x2="1785.9" y2="581.6" class="error"/>
<line x1="1775.9" y1="585.8" x2="1785.9" y2="585.8" class="error"/>
<text x="1814.9" y="645" text-anchor="middle" font-size="14" style="fill:#047857">N/A</text>
<text x="1780.9" y="681" text-anchor="middle" font-size="15">128</text>
<rect x="1893.1" y="531.0" width="31" height="124.0" fill="#4f7df3"><title>direct_gpu, W=512, net_system_energy_j=16.180757903001684</title></rect>
<text x="1908.6" y="519.1" text-anchor="middle" font-size="13">16.2</text>
<line x1="1908.6" y1="529.1" x2="1908.6" y2="535.7" class="error"/>
<line x1="1903.6" y1="529.1" x2="1913.6" y2="529.1" class="error"/>
<line x1="1903.6" y1="535.7" x2="1913.6" y2="535.7" class="error"/>
<rect x="1927.1" y="576.5" width="31" height="78.5" fill="#f59e0b"><title>direct_npu, W=512, net_system_energy_j=10.246507678246726</title></rect>
<text x="1942.6" y="564.4" text-anchor="middle" font-size="13">10.2</text>
<line x1="1942.6" y1="574.4" x2="1942.6" y2="578.9" class="error"/>
<line x1="1937.6" y1="574.4" x2="1947.6" y2="574.4" class="error"/>
<line x1="1937.6" y1="578.9" x2="1947.6" y2="578.9" class="error"/>
<text x="1976.6" y="645" text-anchor="middle" font-size="14" style="fill:#047857">N/A</text>
<text x="1942.6" y="681" text-anchor="middle" font-size="15">512</text>
<rect x="2054.9" y="502.6" width="31" height="152.4" fill="#4f7df3"><title>direct_gpu, W=1024, net_system_energy_j=19.891807329609644</title></rect>
<text x="2070.4" y="491.5" text-anchor="middle" font-size="13">19.9</text>
<line x1="2070.4" y1="501.5" x2="2070.4" y2="507.3" class="error"/>
<line x1="2065.4" y1="501.5" x2="2075.4" y2="501.5" class="error"/>
<line x1="2065.4" y1="507.3" x2="2075.4" y2="507.3" class="error"/>
<rect x="2088.9" y="561.2" width="31" height="93.8" fill="#f59e0b"><title>direct_npu, W=1024, net_system_energy_j=12.246035940587658</title></rect>
<text x="2104.4" y="547.1" text-anchor="middle" font-size="13">12.2</text>
<line x1="2104.4" y1="557.1" x2="2104.4" y2="562.5" class="error"/>
<line x1="2099.4" y1="557.1" x2="2109.4" y2="557.1" class="error"/>
<line x1="2099.4" y1="562.5" x2="2109.4" y2="562.5" class="error"/>
<text x="2138.4" y="645" text-anchor="middle" font-size="14" style="fill:#047857">N/A</text>
<text x="2104.4" y="681" text-anchor="middle" font-size="15">1024</text>
<rect x="2216.6" y="442.7" width="31" height="212.3" fill="#4f7df3"><title>direct_gpu, W=2048, net_system_energy_j=27.713513875514373</title></rect>
<text x="2232.1" y="428.4" text-anchor="middle" font-size="13">27.7</text>
<line x1="2232.1" y1="438.4" x2="2232.1" y2="455.0" class="error"/>
<line x1="2227.1" y1="438.4" x2="2237.1" y2="438.4" class="error"/>
<line x1="2227.1" y1="455.0" x2="2237.1" y2="455.0" class="error"/>
<rect x="2250.6" y="530.3" width="31" height="124.7" fill="#f59e0b"><title>direct_npu, W=2048, net_system_energy_j=16.27920216629202</title></rect>
<text x="2266.1" y="518.3" text-anchor="middle" font-size="13">16.3</text>
<line x1="2266.1" y1="528.3" x2="2266.1" y2="533.7" class="error"/>
<line x1="2261.1" y1="528.3" x2="2271.1" y2="528.3" class="error"/>
<line x1="2261.1" y1="533.7" x2="2271.1" y2="533.7" class="error"/>
<text x="2300.1" y="645" text-anchor="middle" font-size="14" style="fill:#047857">N/A</text>
<text x="2266.1" y="681" text-anchor="middle" font-size="15">2048</text>
<text x="2023.5" y="710" text-anchor="middle" font-size="16">Prompt length W (tokens)</text>
<text x="1200.0" y="743" text-anchor="middle" font-size="14" fill="#475569">W prompt + 32 fixed decode calls; compilation excluded. Whiskers: range across 3 processes. Oracle N/A is not zero: prior estimates used invalid/mixed-runtime traces.</text>
</svg>
